<svg width="100%" height="100%" viewBox="0 0 250 39" fill="none" xmlns="http://www.w3.org/2000/svg" class="text-white transition-colors"><path d="M0.00195312 0.475098H13.6395C20.6361 0.475098 24.1937 4.74257 24.1937 9.95839C24.1937 13.5146 22.415 16.1225 19.0945 17.1894C24.0751 18.3748 26.8026 21.931 26.8026 26.6727C26.8026 33.0739 22.5334 37.9341 14.5882 37.9341H0.00195312V0.475098ZM13.4023 15.1742C16.8413 15.1742 18.5015 13.2775 18.5015 10.4325C18.5015 7.58756 16.9599 5.69091 13.2837 5.69091H5.81273V15.1742H13.4023ZM14.351 32.8368C18.8573 32.8368 20.9919 30.2289 20.9919 26.4357C20.9919 22.6422 18.6201 20.0344 13.9952 20.0344H5.81273V32.8368H14.351Z" fill="currentColor"></path><path d="M68.1248 19.2036C68.1248 8.06079 76.663 0 87.4545 0C98.1272 0 106.784 8.06079 106.784 19.2036C106.784 30.3465 98.2458 38.4072 87.4545 38.4072C76.7816 38.5258 68.1248 30.465 68.1248 19.2036ZM100.855 19.2036C100.855 11.2614 95.3998 5.2158 87.5731 5.2158C79.7462 5.2158 74.1727 11.2614 74.1727 19.2036C74.1727 27.1458 79.7462 33.1915 87.5731 33.1915C95.3998 33.1915 100.855 27.2645 100.855 19.2036Z" fill="#F68C43"></path><path d="M156.763 16.0028C155.222 14.4618 153.206 11.8538 153.206 11.8538C153.206 11.8538 153.562 14.9359 153.562 17.3067V37.9329H148.107V0.118286H148.937L169.571 22.2854C170.994 23.8266 173.01 26.4344 173.01 26.4344C173.01 26.4344 172.654 23.1153 172.654 20.9816V0.473908H178.109V38.2886H177.398L156.763 16.0028Z" fill="currentColor"></path><path d="M219.432 0.475098H229.75C241.727 0.475098 249.791 7.94318 249.791 19.2046C249.791 30.466 241.845 37.9341 229.75 37.9341H219.432V0.475098ZM229.393 32.8368C239.118 32.8368 243.742 27.2653 243.742 19.2046C243.742 11.2623 239.118 5.57237 229.393 5.57237H225.362V32.8368H229.393Z" fill="currentColor"></path></svg>
